<?xml version="1.0" encoding="UTF-8" standalone="no"?>
<svg
   id="Ebene_1"
   version="1.1"
   viewBox="0 0 1024 1024"
   sodipodi:docname="Nova-Suite_Logo_new.svg"
   inkscape:version="1.4.3 (0d15f75, 2025-12-25)"
   xmlns:inkscape="http://www.inkscape.org/namespaces/inkscape"
   xmlns:sodipodi="http://sodipodi.sourceforge.net/DTD/sodipodi-0.dtd"
   xmlns="http://www.w3.org/2000/svg"
   xmlns:svg="http://www.w3.org/2000/svg">
  <sodipodi:namedview
     id="namedview27"
     pagecolor="#ffffff"
     bordercolor="#000000"
     borderopacity="0.25"
     inkscape:showpageshadow="2"
     inkscape:pageopacity="0.0"
     inkscape:pagecheckerboard="0"
     inkscape:deskcolor="#d1d1d1"
     inkscape:zoom="0.61911682"
     inkscape:cx="-13.729234"
     inkscape:cy="600.04831"
     inkscape:window-width="2015"
     inkscape:window-height="1403"
     inkscape:window-x="468"
     inkscape:window-y="468"
     inkscape:window-maximized="0"
     inkscape:current-layer="Ebene_1" />
  <defs
     id="defs1">
    <style
       id="style1">
      .st0 {
        fill: #010101;
      }

      .st1 {
        fill: #e9e9e9;
      }

      .st2 {
        fill: #1fbad9;
      }

      .st3 {
        fill: #143640;
      }

      .st4 {
        fill: #193942;
      }

      .st5 {
        fill: #e6e7e7;
      }

      .st6 {
        fill: #14353f;
      }

      .st7 {
        fill: #153138;
      }

      .st8 {
        fill: #e7e7e7;
      }

      .st9 {
        fill: #14363f;
      }

      .st10 {
        fill: #e8e8e8;
      }
    </style>
  </defs>
  <g
     id="g17-4-4-7-2"
     transform="matrix(1.114851,0,0,1.114851,359.1995,-526.99048)">
    <circle
       class="st2"
       cx="143.77484"
       cy="761.30048"
       r="59.27"
       id="circle16-8-5-1-7"
       style="fill:#1fbad9;fill-opacity:0.475524" />
  </g>
  <g
     id="g17-4-4-7-2-4"
     transform="matrix(1.114851,0,0,1.114851,360.78969,-323.65938)">
    <circle
       class="st2"
       cx="143.77484"
       cy="761.30048"
       r="59.27"
       id="circle16-8-5-1-7-8"
       style="fill:#1fbad9;fill-opacity:0.475524" />
  </g>
  <g
     id="g17-4-4-7-2-45"
     transform="matrix(1.114851,0,0,1.114851,584.78969,-133.65938)">
    <circle
       class="st2"
       cx="143.77484"
       cy="761.30048"
       r="59.27"
       id="circle16-8-5-1-7-5"
       style="fill:#1fbad9;fill-opacity:0.475524" />
  </g>
  <g
     id="g17-4-4-7-2-1"
     transform="matrix(1.114851,0,0,1.114851,126.78969,-133.65938)">
    <circle
       class="st2"
       cx="143.77484"
       cy="761.30048"
       r="59.27"
       id="circle16-8-5-1-7-1"
       style="fill:#1fbad9;fill-opacity:0.475524" />
  </g>
  <circle
     class="st1"
     cx="520.23999"
     cy="56.439999"
     r="36.299999"
     id="circle3"
     style="fill:#aaaaaa;fill-opacity:1;stroke:#aaaaaa;stroke-opacity:1" />
  <circle
     class="st10"
     cx="57.290001"
     cy="504.12"
     r="30.290001"
     id="circle4"
     style="fill:#aaaaaa;fill-opacity:1;stroke:#aaaaaa;stroke-opacity:1" />
  <circle
     class="st10"
     cx="984.22998"
     cy="505.72"
     r="30.290001"
     id="circle5"
     style="fill:#aaaaaa;fill-opacity:1;stroke:#aaaaaa;stroke-opacity:1" />
  <path
     class="st8"
     d="M 576.84638,347.98744 C 586.34196,356.77452 592.55,362.94 601.27,371.89 l 133.04,136.57 16,17.37 c 3.41,3.71 8.79,8.39 8.78,14.22 l -0.23,101.96 -0.09,5.87 c -0.0705,1.45761 -0.23035,5.14975 -0.23035,6.28975 L 758.41,655.87 l -8.90018,-1.29709 c -2.49,-0.01 -5.13743,-0.39256 -7.67743,-0.0426 L 741.76,651.24 l 1.08,-93.16 c 0.06,-5.06 0.46,-11.12 -1.21,-15.63 l -29.37,-31.79 -81.7,-85.13 -44.79,-46.24 -18.04316,-18.87537 -1.45407,-2.18186 c 0.03,-0.79 0.99199,-1.05226 1.78045,-2.71036 0.25,-0.69 1.32035,-1.96743 1.95035,-2.35743 l 1.56095,-3.04628 c 1.23,-0.76 1.76769,-5.14765 2.79769,-4.31765 z"
     id="path10"
     style="fill:#aaaaaa;fill-opacity:1;stroke:#aaaaaa;stroke-opacity:1"
     sodipodi:nodetypes="cccccccccccccccccccccccc" />
  <path
     class="st8"
     d="m 465.50176,347.93126 c 0.09,2.33 1.94537,2.15547 4.06768,7.35176 l 2.02207,2.28582 L 448.67,381.86 311.53,527.34 c -5.32,5.64 -11.2,11.12 -14.62,17.58 l -1.12,49.08 -0.63,45.91 -0.41,15.07 c -5.54,-0.66 -11.14,-0.54 -16.65,0.36 l -0.34,-11.72 0.19,-10.58 -0.05,-25.1 0.79,-54.9 c 0.13,-8.92 3.04,-15.89 9.04,-22.4 l 36.94,-40.1 97.54,-105.21 c 12.55,-13.54 21.32246,-22.18095 34.52246,-34.18095 1.96,-1.78 4.36663,-4.74453 6.93663,-7.54463 z"
     id="path11"
     style="fill:#aaaaaa;fill-opacity:1;stroke:#aaaaaa;stroke-opacity:1"
     sodipodi:nodetypes="cccccccccccccccccccc" />
  <g
     id="g17">
    <circle
       class="st2"
       cx="287.70001"
       cy="713.82001"
       r="59.27"
       id="circle16" />
  </g>
  <g
     id="g17-4"
     transform="translate(457.56999,0.44999)">
    <circle
       class="st2"
       cx="287.70001"
       cy="713.82001"
       r="59.27"
       id="circle16-8"
       style="fill:#1fbad9" />
  </g>
  <g
     id="g17-4-4-7"
     transform="translate(231.48202,-392.63427)">
    <circle
       class="st2"
       cx="287.70001"
       cy="713.82001"
       r="59.27"
       id="circle16-8-5-1"
       style="fill:#1fbad9" />
  </g>
  <path
     class="st5"
     d="M 473.773,560.63966 472.04,562.8 c -38.59,41.07 -78.8,80.62 -120.01,119.05 l -5.8,5.41 c -1.39,1.3 -2.69,2.42 -4.3,2.65 -1.79,-4.05 -4.02,-7.89 -6.66,-11.44 3.23,-2 5,-4.39 6.93,-6.34 l 88.49,-89.32 32.6,-31.58 3.28552,-2.77867 2.65103,5.35251 c 1.22,1.42 1.0335,1.3437 2.12448,3.72552 z"
     id="path18"
     style="fill:#aaaaaa;fill-opacity:1;stroke:#aaaaaa;stroke-opacity:1"
     sodipodi:nodetypes="ccccccccccccc" />
  <path
     class="st5"
     d="m 578.74,556.27 85.03,84.83 36.78392,33.06834 -1.54322,1.77246 -7.82372,12.6092 c -1.31,0.31 -1.25698,-0.16 -1.93698,-0.79 l -6.34,-5.8 -73.18,-72.62 -42.43,-44.71 c -2.03532,-1.88182 0.34232,-1.32985 0.31232,-2.87985 2.44517,-2.24966 4.14152,-5.79182 5.85601,-8.567 0.40719,-1.24714 3.60167,1.43685 5.26167,3.08685 z"
     id="path19"
     style="fill:#aaaaaa;fill-opacity:1;stroke:#aaaaaa;stroke-opacity:1"
     sodipodi:nodetypes="ccccccccccccc" />
  <g
     id="g17-4-4"
     transform="translate(233.56999,-189.55001)">
    <circle
       class="st2"
       cx="287.70001"
       cy="713.82001"
       r="59.27"
       id="circle16-8-5"
       style="fill:#1fbad9" />
  </g>
  <path
     class="st10"
     d="m 52.61,602.23 c -2.17,-12.61 -3.76,-24.94 -1.7,-36.62 2.48,-5.67 13.96,-4.36 16.7,0.3 1.89,3.21 2.14,5.48 2.61,9 13.22,100.04 55.22,191.29 127.9,261.9 17.12,16.63 33.84,31.99 53.41,45.77 26.98,19 54.7,35.83 85.33,48.53 75.4,31.27 149.7,41.4 231.22,32.86 48.83,-5.12 95.42,-18.2 140.35,-37.45 15.8,-6.77 29.75,-14.98 44.33,-23.81 66.45,-40.28 120.84,-96.23 158.96,-163.98 13.61,-24.19 25.26,-48.35 34.41,-74.68 10.24,-29.48 18.03,-59.09 23.03,-89.91 0.7,-4.3 0.79,-8 4.06,-10.55 3.04,-2.37 6.84,-2.81 11.02,-1.77 3.27,0.81 5.5,3.16 5.09,7.39 -5.24,53.59 -20.16,105.15 -43.22,154.02 -23.03,48.8 -54.32,93.22 -92.38,131.31 l -36.83,32.48 c -40.74,33.24 -86.57,58.44 -136.53,75.33 -43.63,14.75 -88.11,24.12 -134.12,26.72 l -63.32,-0.15 C 433.88,985.52 386.81,973.54 341.05,955.98 300.3,940.34 262.68,919.5 228.3,892.8 183.22,857.79 144.93,816.84 114.33,768.65 100.94,745.09 88.5,721.9 78.52,696.51 66.53,666 58.25,635.04 52.61,602.24 Z"
     id="path24"
     style="display:inline;fill:#aaaaaa;fill-opacity:1;stroke:#aaaaaa;stroke-opacity:1" />
  <g
     id="g26"
     style="stroke:#aaaaaa;stroke-opacity:1;fill:#aaaaaa;fill-opacity:1">
    <path
       class="st10"
       d="m 81.44,395.8 -10.03,32.75 c -1.85,6.04 -9.51,6.24 -14.04,3.31 -3.7,-2.38 -5.87,-4.49 -4.83,-9.47 7.33,-35 18.86,-69 34.5,-101.35 50.02,-103.47 135.24,-186.21 240.45,-232.49 23.76,-10.45 47.66,-18.96 72.53,-26.36 24.68,-7.34 49.21,-10.42 74.71,-10.3 0.38,5.74 0.95,10.58 0.48,16.67 -92.98,14.76 -179.08,50.09 -251.01,111.51 -23.24,19.85 -44.42,40.81 -63.45,64.71 -35.85,45 -62.34,95.6 -79.31,151.01 z"
       id="path25"
       style="fill:#aaaaaa;fill-opacity:1;stroke:#aaaaaa;stroke-opacity:1" />
    <path
       class="st8"
       d="m 982.6,427.26 c 0.42,1.94 0.04,3.94 -0.72,5.09 -1.82,2.78 -9.4,4.49 -14.74,2.08 -2.74,-1.24 -4.42,-4.35 -5.41,-8.28 C 952.12,387.97 939.22,350.72 921.74,315.3 888.92,248.79 839.32,193.39 778.37,151.56 738.04,123.88 694.88,102.28 647.98,87.94 621.5,79.85 595.87,72.11 568.07,68.73 l 1.59,-15.4 c 8.33,-0.88 16.3,0.35 24.78,1.4 25.82,3.2 50.05,10.17 74.95,18 57.47,18.06 110.05,46.91 156.06,85.74 17.42,14.7 33.52,29.58 47.74,47.34 l 35.98,44.96 c 11.64,16.51 22.01,32.88 31.06,51.05 19.86,39.9 32.9,82.01 42.36,125.44 z"
       id="path26"
       style="fill:#aaaaaa;fill-opacity:1;stroke:#aaaaaa;stroke-opacity:1" />
  </g>
</svg>
